<?xml version="1.0" standalone="no"?><!DOCTYPE svg PUBLIC "-//W3C//DTD SVG 1.1//EN" "http://www.w3.org/Graphics/SVG/1.1/DTD/svg11.dtd"><svg t="1761725602643" class="icon" viewBox="0 0 1024 1024" version="1.1" xmlns="http://www.w3.org/2000/svg" p-id="16033" xmlns:xlink="http://www.w3.org/1999/xlink" width="200" height="200"><path d="M772.8128 292.0448l-198.7072 154.0096a57.02656 57.02656 0 0 1-69.9392 0L305.408 292.0448c-37.5296-29.0816-92.0576-2.3552-92.0576 45.1072v503.0912c0 47.4624 54.528 74.1888 92.0576 45.1072l198.7072-154.0096c20.5824-15.9744 49.3568-15.9744 69.9392 0l198.7072 154.0096c37.5296 29.0816 92.0576 2.3552 92.0576-45.1072V337.152c0.0512-47.4624-54.4768-74.1888-92.0064-45.1072z m-310.1696 328.0384l-79.5648 61.6448c-4.352 3.3792-9.472 4.9664-14.5408 4.9664-7.1168 0-14.1312-3.1744-18.8416-9.216a23.79776 23.79776 0 0 1 4.2496-33.3824l69.5808-53.9136-69.5808-53.9136a23.79776 23.79776 0 0 1 29.1328-37.632l79.5648 61.6448a37.46816 37.46816 0 0 1 14.6432 29.8496 37.888 37.888 0 0 1-14.6432 29.952z m251.2896 24.064c10.3936 8.0384 12.288 22.9888 4.2496 33.3824a23.82336 23.82336 0 0 1-33.3824 4.2496l-79.5648-61.6448a37.46816 37.46816 0 0 1-14.6432-29.8496c0-11.776 5.3248-22.6304 14.6432-29.8496l79.5648-61.6448a23.79776 23.79776 0 0 1 29.1328 37.632l-69.5808 53.9136 69.5808 53.8112z" fill="#ffe048" p-id="16034"></path><path d="M797.952 865.6384c-18.8928 0-37.5296-6.1952-53.1968-18.3296l-213.8624-165.7344a35.8144 35.8144 0 0 0-43.9296 0l-213.8624 165.7344c-26.4704 20.5312-61.5936 24.064-91.648 9.3696-30.0544-14.7456-48.7424-44.6976-48.7424-78.1824V237.1072c0-33.4848 18.688-63.4368 48.7424-78.1312 30.0544-14.7456 65.1776-11.1616 91.648 9.3696l213.8624 165.7344a35.8144 35.8144 0 0 0 43.9296 0l213.8624-165.7344c26.4704-20.48 61.5424-24.1152 91.648-9.3696 30.0544 14.7456 48.7424 44.6976 48.7424 78.1312v541.3888c0 33.4848-18.688 63.4368-48.7424 78.1824a87.7568 87.7568 0 0 1-38.4512 8.96zM219.9552 201.1648c-5.376 0-10.752 1.2288-15.9232 3.7888-12.544 6.144-20.0704 18.176-20.0704 32.2048v541.3888c0 13.9776 7.4752 26.0096 20.0704 32.2048 12.5952 6.144 26.6752 4.7104 37.7344-3.84l213.8624-165.7344c31.3856-24.32 75.264-24.32 106.6496 0l213.8624 165.7344c11.0592 8.5504 25.1392 10.0352 37.7344 3.84 12.5952-6.144 20.0704-18.176 20.0704-32.2048V237.1072c0-13.9776-7.4752-26.0096-20.0704-32.2048-12.544-6.144-26.6752-4.7104-37.7344 3.84l-213.8624 165.7344a87.0656 87.0656 0 0 1-106.6496 0L241.7664 208.7936c-6.5536-5.0688-14.1312-7.6288-21.8112-7.6288z m540.4672-12.6464z" fill="#55524F" p-id="16035"></path><path d="M681.3696 608.2048c-4.4032 0-8.8064-1.3824-12.544-4.3008l-85.6064-66.3552c-8.7552-6.8096-13.7728-17.0496-13.7728-28.1088s5.0176-21.2992 13.7728-28.1088l85.6064-66.3552c8.96-6.912 21.8112-5.3248 28.7232 3.6352 6.912 8.96 5.3248 21.8112-3.6352 28.7232L613.8368 509.44l80.0768 62.0544a20.46464 20.46464 0 0 1 3.6352 28.7232 20.31104 20.31104 0 0 1-16.1792 7.9872zM325.3248 608.2048c-6.0928 0-12.1856-2.7136-16.1792-7.936-6.912-8.96-5.3248-21.8112 3.6352-28.7232L392.8576 509.44 312.7808 447.3344a20.46464 20.46464 0 0 1-3.6352-28.7232 20.46464 20.46464 0 0 1 28.7232-3.6352l85.6064 66.3552c8.7552 6.7584 13.7728 16.9984 13.7728 28.1088s-5.0176 21.2992-13.7728 28.1088l-85.6064 66.3552c-3.7376 2.8672-8.1408 4.3008-12.544 4.3008z" fill="#55524F" p-id="16036"></path></svg>