<?xml version="1.0" standalone="no"?><!DOCTYPE svg PUBLIC "-//W3C//DTD SVG 1.1//EN" "http://www.w3.org/Graphics/SVG/1.1/DTD/svg11.dtd"><svg t="1761725694721" class="icon" viewBox="0 0 1024 1024" version="1.1" xmlns="http://www.w3.org/2000/svg" p-id="19758" xmlns:xlink="http://www.w3.org/1999/xlink" width="200" height="200"><path d="M356.0448 417.6384m105.8816 0l332.9024 0q105.8816 0 105.8816 105.8816l0 232.3456q0 105.8816-105.8816 105.8816l-332.9024 0q-105.8816 0-105.8816-105.8816l0-232.3456q0-105.8816 105.8816-105.8816Z" fill="#F5384A" p-id="19759"></path><path d="M868.864 447.8976a105.5232 105.5232 0 0 0-74.0352-30.2592h-332.8a105.8816 105.8816 0 0 0-105.8816 105.9328v232.3456a105.2672 105.2672 0 0 0 15.9232 55.6544 359.0144 359.0144 0 0 0 496.64-363.52z" fill="#F54F5C" p-id="19760"></path><path d="M366.6432 685.7728a358.8096 358.8096 0 0 0 436.6848-258.4576c0.768-3.072 1.3824-6.0928 2.0992-9.1136a103.424 103.424 0 0 0-10.5984-0.5632h-332.8a105.8816 105.8816 0 0 0-105.8816 105.9328v159.232c3.4304 0.9728 6.912 2.048 10.496 2.9696z" fill="#F66C73" p-id="19761"></path><path d="M356.0448 567.552a359.2192 359.2192 0 0 0 318.6688-149.9136H461.9264a105.8816 105.8816 0 0 0-105.8816 105.9328z" fill="#F78989" p-id="19762"></path><path d="M768.4608 109.4144H255.5904c-92.16 0-167.3728 81.92-167.3728 182.1696v430.592c0 100.4544 75.0592 182.1696 167.3728 182.1696h512.8704c92.16 0 167.3216-81.92 167.3216-182.1696V291.84c0-100.7104-75.0592-182.4256-167.3216-182.4256z m105.8816 612.7616c0 66.56-47.5136 120.7296-105.8816 120.7296H255.5904c-58.4192 0-105.9328-54.1696-105.9328-120.7296V291.84c0-66.56 47.5136-120.7296 105.9328-120.7296h512.8704c58.368 0 105.8816 54.1696 105.8816 120.7296z" fill="#444444" p-id="19763"></path><path d="M423.168 290.1504L328.2432 389.9392l-40.96-42.496a30.72 30.72 0 1 0-44.0832 42.8032L306.3808 455.68a30.72 30.72 0 0 0 22.0672 9.3184A30.72 30.72 0 0 0 350.72 455.68l116.992-122.88a30.72 30.72 0 0 0-44.544-42.3424zM770.9696 342.0672h-222.7712a30.72 30.72 0 0 0 0 61.44h222.7712a30.72 30.72 0 0 0 0-61.44zM770.9696 603.4944h-222.7712a30.72 30.72 0 0 0 0 61.44h222.7712a30.72 30.72 0 1 0 0-61.44zM355.2256 508.672a110.0288 110.0288 0 1 0 110.0288 110.0288 110.1824 110.1824 0 0 0-110.0288-110.0288z m0 158.72a48.5888 48.5888 0 1 1 48.5888-48.5888 48.6912 48.6912 0 0 1-48.5888 48.4864z" fill="#444444" p-id="19764"></path></svg>