<?xml version="1.0" standalone="no"?><!DOCTYPE svg PUBLIC "-//W3C//DTD SVG 1.1//EN" "http://www.w3.org/Graphics/SVG/1.1/DTD/svg11.dtd"><svg t="1761722224588" class="icon" viewBox="0 0 1050 1024" version="1.1" xmlns="http://www.w3.org/2000/svg" p-id="1407" xmlns:xlink="http://www.w3.org/1999/xlink" width="205.078125" height="200"><path d="M326.51159 231.758769c-3.373949-102.445949 39.338667-173.535179 128.131282-213.267692C474.729026 9.517949 497.480205 5.014974 522.909538 4.969026c91.50359-0.131282 166.334359 58.092308 193.706667 144.541538 7.614359 23.958974 6.564103 51.922051 6.892308 77.522051a5.382564 5.382564 0 0 0 5.316923 5.316923c79.556923 0.853333 170.338462-62.424615 245.825641-24.943589 77.915897 38.728205 95.245128 144.147692 34.789744 208.475897a383.179487 383.179487 0 0 1-62.490257 53.76 3460.621128 3460.621128 0 0 1-157.735385 102.4 8.073846 8.073846 0 0 0-3.610256 9.058462 14662.669128 14662.669128 0 0 1 70.301539 254.424615 349.078974 349.078974 0 0 1 8.598974 42.666667c9.189744 67.21641-30.129231 128.196923-98.067692 140.274872-44.307692 7.876923-82.379487-2.953846-113.952821-37.809231-42.404103-46.690462-85.924103-93.735385-130.56-141.128205a5.874872 5.874872 0 0 0-4.20759-1.831385 5.74359 5.74359 0 0 0-4.201025 1.772308 4196.102564 4196.102564 0 0 0-124.914872 135.286154c-32.164103 36.299487-58.748718 48.771282-107.913846 45.292307-60.586667-4.266667-101.152821-50.937436-109.489231-110.211282-2.822564-20.283077 2.756923-48.574359 9.124103-72.139487 23.433846-86.514872 47.98359-172.767179 71.614359-259.282051a10.338462 10.338462 0 0 0-4.529231-11.421539 2844.921436 2844.921436 0 0 1-156.422564-104.631795c-32.820513-23.552-57.324308-50.530462-73.517949-80.935384-44.504615-83.757949 25.074872-195.872821 123.339487-179.068718 48.403692 8.270769 84.283077 15.044923 107.651282 20.348718 26.25641 5.947077 51.029333 10.121846 74.305641 12.537436a3.413333 3.413333 0 0 0 3.741539-3.478975z m157.426872 102.636308c67.708718 20.184615 139.815385-21.188923 161.043692-92.409436 10.200615-34.198974 7.05641-70.852923-8.723692-101.888-15.780103-31.041641-42.916103-53.924103-75.434667-63.619282-67.708718-20.184615-139.815385 21.188923-161.043692 92.409436-10.194051 34.198974-7.05641 70.852923 8.730256 101.888 15.780103 31.041641 42.909538 53.924103 75.428103 63.619282z m410.499282-68.306051c-78.112821 21.13641-125.833846 31.113846-193.837949 35.052307-2.231795 0.131282-4.030359 1.096205-5.382564 2.888205a1750.514872 1750.514872 0 0 1-20.348718 27.109744c-83.232821 107.913846-234.732308 98.461538-312.648205-9.846154a247.112205 247.112205 0 0 0-13.39077-16.935384 8.027897 8.027897 0 0 0-5.448205-2.822565 2403.446154 2403.446154 0 0 1-200.598974-32.098461c-7.089231-1.398154-17.854359-1.096205-32.295385 0.918974-108.767179 43.913846 25.271795 148.48 68.397949 174.933334 1.398154 2.100513 2.382769 3.328 2.953846 3.675897 48.922256 29.492513 89.160205 55.401026 120.713846 77.718974 10.502564 7.417436 22.514872 13.981538 18.707693 29.866667-24.746667 104.237949-55.794872 206.834872-83.232821 310.350769-7.220513 27.437949-5.579487 58.157949 15.294359 77.981539 32.820513 31.37641 72.598974 4.594872 95.835898-22.449231a5363.659487 5363.659487 0 0 1 126.884102-142.178462c17.368615-18.727385 35.794051-22.711795 55.269744-11.946666 10.148103 5.559795 26.276103 19.101538 48.377436 40.631795 22.711795 22.055385 66.231795 68.266667 130.56 138.633846 9.058462 9.892103 19.495385 13.653333 31.310769 11.290256 75.355897-2.034872 60.652308-66.100513 48.114872-115.003077-11.946667-46.821744-30.982564-118.790564-57.107693-215.893333-7.220513-26.912821-12.235487-50.103795-15.031795-69.579487-1.969231-14.047179 3.21641-20.873846 14.112821-28.028718 64.498872-42.404103 117.208615-76.425846 158.129231-102.071795 31.179487-19.561026 86.186667-54.875897 90.978461-95.113846 3.741538-31.048205-13.981538-66.297436-47.064615-71.811282-12.826256-2.146462-25.908513-0.571077-39.253333 4.726154z" fill="#343333" p-id="1408"></path><path d="M483.938462 334.395077c-32.518564-9.695179-59.648-32.577641-75.434667-63.619282-15.780103-31.035077-18.917744-67.689026-8.723692-101.888 21.228308-71.220513 93.334974-112.594051 161.043692-92.409436 32.518564 9.695179 59.654564 32.577641 75.434667 63.619282 15.780103 31.035077 18.924308 67.689026 8.730256 101.888-21.234872 71.220513-93.341538 112.594051-161.050256 92.409436z m-32.662975-85.070769c17.165128 10.430359 40.251077 3.794051 51.56759-14.821744 11.323077-18.615795 6.583795-42.167795-10.574769-52.598154-17.158564-10.436923-40.251077-3.807179-51.56759 14.81518-11.316513 18.615795-6.583795 42.167795 10.574769 52.598154z m163.925334-22.678975c2.527179-9.163487 1.050256-19.029333-4.096-27.418256-5.146256-8.388923-13.541744-14.618256-23.341949-17.316103-20.414359-5.618872-41.222564 5.290667-46.473846 24.372513-2.527179 9.163487-1.050256 19.029333 4.089436 27.418257 5.146256 8.388923 13.548308 14.618256 23.348512 17.316102 20.414359 5.625436 41.222564-5.290667 46.473847-24.372513z" fill="#CA9F54" p-id="1409"></path><path d="M492.270342 181.902457a36.365128 39.450256 31.3 1 0-40.990325 67.41724 36.365128 39.450256 31.3 1 0 40.990325-67.41724Z" fill="#343333" p-id="1410"></path><path d="M541.286944 206.284487a38.334359 35.84 15.4 1 0 73.915958 20.359847 38.334359 35.84 15.4 1 0-73.915958-20.359847Z" fill="#343333" p-id="1411"></path><path d="M741.559795 958.86441c6.209641-1.312821 8.027897-5.77641 5.448205-13.390769-4.46359-13.062564-7.483077-26.125128-10.89641-39.450256a5222.596923 5222.596923 0 0 1-71.089231-319.737436c-3.085128-16.147692-0.787692-29.275897 11.027692-42.010257 24.94359-26.978462 53.76-51.068718 83.692308-76.077948 42.404103-35.446154 80.01641-71.811282 120.123077-107.979488 11.723487-10.548513 20.499692-19.82359 26.322051-27.831794 20.827897-28.704821 16.909128-50.806154-11.749743-66.297436 13.344821-5.297231 26.427077-6.872615 39.253333-4.726154 33.083077 5.513846 50.806154 40.763077 47.064615 71.811282-4.791795 40.237949-59.798974 75.552821-90.978461 95.113846-40.920615 25.645949-93.630359 59.667692-158.129231 102.071795-10.89641 7.154872-16.082051 13.981538-14.112821 28.028718 2.796308 19.475692 7.811282 42.666667 15.031795 69.579487 26.125128 97.102769 45.161026 169.07159 57.107693 215.893333 12.537436 48.902564 27.241026 112.968205-48.114872 115.003077z" fill="#AC884A" p-id="1412"></path><path d="M894.437744 266.089026c28.658872 15.491282 32.577641 37.592615 11.749743 66.297436-5.822359 8.008205-14.598564 17.283282-26.322051 27.831794-40.106667 36.168205-77.718974 72.533333-120.123077 107.979488-29.932308 25.009231-58.748718 49.099487-83.692308 76.077948-11.815385 12.734359-14.112821 25.862564-11.027692 42.010257a5222.596923 5222.596923 0 0 0 71.089231 319.737436c3.413333 13.325128 6.432821 26.387692 10.89641 39.450256 2.579692 7.614359 0.761436 12.077949-5.448205 13.390769-11.815385 2.363077-22.252308-1.398154-31.310769-11.290256-64.328205-70.367179-107.848205-116.578462-130.56-138.633846-22.101333-21.530256-38.229333-35.072-48.377436-40.631795-19.475692-10.765128-37.901128-6.780718-55.269744 11.946666a5363.659487 5363.659487 0 0 0-126.884102 142.178462c-23.236923 27.044103-63.015385 53.825641-95.835898 22.449231-20.873846-19.82359-22.514872-50.54359-15.294359-77.981539 27.437949-103.515897 58.486154-206.112821 83.232821-310.350769 3.807179-15.885128-8.205128-22.449231-18.707693-29.866667-31.553641-22.317949-71.79159-48.226462-120.713846-77.718974-0.571077-0.347897-1.555692-1.575385-2.953846-3.675897a4.46359 4.46359 0 0 0 1.772308-0.853334c0.827077-0.65641 0.892718-1.378462 0.196923-2.166154-38.203077-43.257436-86.252308-110.670769-63.146667-167.318974 0.787692-1.969231 0.170667-3.301744-1.837949-4.004102a13.193846 13.193846 0 0 0-5.382564-0.59077c14.441026-2.015179 25.206154-2.317128 32.295385-0.918974a2403.446154 2403.446154 0 0 0 200.598974 32.098461c2.185846 0.216615 4.004103 1.161846 5.448205 2.822565 4.726154 5.467897 9.189744 11.113026 13.39077 16.935384 77.915897 108.307692 229.415385 117.76 312.648205 9.846154a1750.514872 1750.514872 0 0 0 20.348718-27.109744c1.352205-1.792 3.150769-2.756923 5.382564-2.888205 68.004103-3.938462 115.725128-13.915897 193.837949-35.052307z m-322.625641 204.471795a50.477949 50.477949 0 1 0-100.955898 0 50.477949 50.477949 0 0 0 100.955898 0z m95.113846 43.277128c20.886974-15.228718 24.503795-45.830564 8.073846-68.358564-7.883487-10.817641-19.429744-18.28759-32.098462-20.762257-12.668718-2.474667-25.422769 0.236308-35.452718 7.548718-20.886974 15.228718-24.503795 45.837128-8.073846 68.365128 7.883487 10.817641 19.429744 18.28759 32.098462 20.762257 12.675282 2.481231 25.429333-0.236308 35.459282-7.548718zM451.800615 475.575795c0.715487-25.652513-21.267692-47.084308-49.099487-47.858872-13.364513-0.374154-26.322051 4.161641-36.010666 12.609641-9.695179 8.448-15.333744 20.118974-15.675077 32.439795-0.722051 25.652513 21.267692 47.084308 49.092923 47.858872 13.364513 0.374154 26.322051-4.161641 36.010666-12.609641 9.695179-8.448 15.333744-20.118974 15.681641-32.439795z" fill="#CA9F54" p-id="1413"></path><path d="M110.486974 270.355692c1.837949-0.177231 3.629949 0.019692 5.382564 0.59077 2.008615 0.702359 2.625641 2.034872 1.837949 4.004102-23.105641 56.648205 24.94359 124.061538 63.146667 167.318974 0.695795 0.787692 0.630154 1.509744-0.196923 2.166154a4.46359 4.46359 0 0 1-1.772308 0.853334c-43.126154-26.453333-177.165128-131.019487-68.397949-174.933334z" fill="#E4D1A8" p-id="1414"></path><path d="M521.334154 470.560821m-50.477949 0a50.477949 50.477949 0 1 0 100.955898 0 50.477949 50.477949 0 1 0-100.955898 0Z" fill="#343333" p-id="1415"></path><path d="M607.449141 432.269508a50.477949 46.802051 53.9 1 0 59.482847 81.571343 50.477949 46.802051 53.9 1 0-59.482847-81.571343Z" fill="#343333" p-id="1416"></path><path d="M351.015347 472.763483a50.412308 46.473846 1.6 1 0 100.785306 2.815188 50.412308 46.473846 1.6 1 0-100.785306-2.815188Z" fill="#343333" p-id="1417"></path></svg>