<?xml version="1.0" standalone="no"?><!DOCTYPE svg PUBLIC "-//W3C//DTD SVG 1.1//EN" "http://www.w3.org/Graphics/SVG/1.1/DTD/svg11.dtd"><svg t="1761726518681" class="icon" viewBox="0 0 1024 1024" version="1.1" xmlns="http://www.w3.org/2000/svg" p-id="33196" xmlns:xlink="http://www.w3.org/1999/xlink" width="200" height="200"><path d="M407.285785 283.979712a547.260948 547.260948 0 0 0-40.186603-12.678008 65.343447 65.343447 0 0 0-25.363676-5.155468c-37.735266 0-68.323354 32.051229-68.323354 71.594357 0 29.469665 17.006149 54.756737 41.289705 65.734129a65.588581 65.588581 0 0 0 20.438021 5.500187c8.120053 2.420695 16.278409 5.101845 24.452085 8.028128 129.805946 46.529437 213.243323 137.772791 250.08998 273.599833 5.032901 17.389171 10.226671 48.996095 15.59663 94.583299 3.554438 31.852058 18.300762 52.297739 44.353876 61.635801 17.281925 6.227928 34.471924 4.979278 51.998983-3.699987 17.504077-8.679264 29.469665-22.253542 36.164878-40.952646 3.010548-8.357527 4.312821-17.527058 4.251538-27.799691-4.580936-110.945973-39.451202-211.649954-104.564837-302.257493C592.545566 383.212891 509.13883 320.48931 407.285785 283.979712z" p-id="33197" fill="#d81e06"></path><path d="M872.917217 321.906489c-94.100693-131.84362-215.687-225.00208-365.295151-279.674552a777.916424 777.916424 0 0 0-156.717028-39.619731 69.725212 69.725212 0 0 0-18.699104-2.612206c-0.237473 0-0.467286 0.030642-0.697099 0.030642-38.248515 0.383021-69.15068 31.476697-69.15068 69.809476 0 32.472553 22.199919 59.690052 52.228795 67.511349a69.962685 69.962685 0 0 0 17.618984 2.32877h0.053623a643.1312 643.1312 0 0 1 127.676347 32.480213c99.42469 36.333408 184.968685 94.001107 256.371531 173.033739 71.364544 79.032632 121.440759 170.827536 150.266947 275.783054 7.928543 30.672352 14.378623 64.447177 19.235334 101.424062 0.873289 5.584452 1.25631 14.570133 1.218008 26.857459 0.926912 11.797059 1.79254 20.591229 2.596885 26.290587 5.178449 31.928662 19.679639 52.090908 43.043943 60.647606 16.921885 6.166644 34.019959 4.986938 50.995466-3.316965 17.144037-8.211978 28.879812-21.250026 35.28393-38.838368 3.255682-8.878436 4.734144-18.201176 4.726484-28.251657-7.124198-164.308512-57.345961-312.300313-150.757215-443.883478zM353.325733 547.023475c-6.779478-3.891497-15.558328-6.350494-26.14504-7.185481-18.385026-1.447821-34.854946 3.248021-49.233568 14.317339-14.593115 11.728115-22.529318 26.451457-24.01544 44.530066-1.754238 21.395574 16.761016 46.713288 55.660667 76.075706 38.930293 29.37774 56.495654 66.086509 52.887592 110.133968-3.608061 44.024477-26.911082 77.500546-70.115894 100.405225-2.367072 1.25631-4.642219 2.50496-6.879064 3.753609-3.255682 0.160869-6.381136 0.268115-9.813008 0.53623-48.942472 3.891497-87.045439-11.743436-114.46977-46.76691-11.207206-14.317339-18.706764-29.523288-22.613582-45.571884-0.022981 0.206832-0.076604 0.413663-0.099585 0.620494-1.240989-5.301016-1.961069-10.724599-2.420696-16.217125V360.017116c0-37.490133-30.388916-67.871389-67.879049-67.871388s-67.871389 30.388916-67.871388 67.871388v433.043973c0 7.87492 1.409519 15.41278 3.876176 22.452713 7.200802 40.224905 23.249398 76.627257 48.712659 109.130452 31.691189 40.462379 72.774062 68.913207 123.516735 85.658901 39.374598 13.068689 78.304891 16.768676 116.867484 11.161243 8.227299 0.137888 15.474064-0.926912 21.479839-3.179077a266.598202 266.598202 0 0 0 14.945494-4.940976c0.275775-0.084265 0.551551-0.137888 0.827326-0.214492 5.086524-1.057139 10.402861-3.248021 15.864746-6.388796 37.26798-16.178823 69.32687-40.500681 96.077083-73.195386 33.292218-41.182459 52.014303-87.022458 56.173915-137.910678s-6.863743-99.056989-33.024103-144.91997c-26.803836-47.149932-64.179062-81.6908-112.309529-103.691548z" p-id="33198" fill="#d81e06"></path></svg>