<?xml version="1.0" standalone="no"?><!DOCTYPE svg PUBLIC "-//W3C//DTD SVG 1.1//EN" "http://www.w3.org/Graphics/SVG/1.1/DTD/svg11.dtd"><svg t="1761726628880" class="icon" viewBox="0 0 1024 1024" version="1.1" xmlns="http://www.w3.org/2000/svg" p-id="1265" xmlns:xlink="http://www.w3.org/1999/xlink" width="200" height="200"><path d="M507.024 330.916c-25.28 0.294-49.94 3.494-73.98 9.6-162.14-97.56-356.98 32.46-335.98 217.88 3.454 30.494 14.02 59.608 31.7 87.34-9.532 23.748-12.846 48.508-9.94 74.28-149.76-157.24-68.82-413.9 141.2-459.92 88.46-19.4 181.8 8.38 247 70.82z" fill="#DC1C4B" p-id="1266"></path><path d="M433.044 340.516c-21.932 7.428-42.646 17.12-62.14 29.08-77.18-25.22-161.3 6.14-200.92 77.5-26.12 47.054-28.646 97-7.58 149.84-14.012 14.08-25.226 30.348-33.64 48.8-17.68-27.732-28.246-56.846-31.7-87.34-21-185.42 173.84-315.44 335.98-217.88z" fill="#FDA35D" p-id="1267"></path><path d="M507.024 330.916c30.9 3.18 57.74 7.42 86.54 20-51.892 7.48-96.06 28.074-132.5 61.78-46 42.548-71.612 96.234-76.84 161.06a1.11 1.11 0 0 1-1.1 1.02c-76.36 1.56-135.7 58.46-142.96 133.7-2.06 21.36 1.8 38.88 13.9 55.66 1.58 2.2 4.12 3.12 3.34 6.8l-93.18-0.04c-19.52 0-40.36-34.76-45.4-50.88-2.906-25.772 0.408-50.532 9.94-74.28 8.414-18.452 19.628-34.72 33.64-48.8 17.868-17.012 38.7-28.846 62.5-35.5a198.75 198.75 0 0 1 36.86-5.5 1.11 1.11 0 0 0 1.08-1.04c3.188-45.052 17.68-86.012 43.48-122.88 17.788-24.666 39.314-45.472 64.58-62.42 19.494-11.96 40.208-21.652 62.14-29.08 24.04-6.106 48.7-9.306 73.98-9.6z" fill="#C8DAE5" p-id="1268"></path><path d="M593.564 350.916c57.534 25.36 99.068 66.88 124.6 124.56 0.256 0.586 0.742 1.036 1.34 1.24 44.428 15.268 78.888 42.894 103.38 82.88 0.332 0.528 0.928 0.82 1.54 0.76 63.22-7.22 122.94 30.16 145.8 88.44 14.92 38.054 13.534 76.648-4.16 115.78-4.14 9.16-21.5 6.92-30.84 6.92-139.28 0.028-278.552 0.04-417.82 0.04-0.292 0-0.566-0.046-0.82-0.14-0.706-0.266-1.192-0.4-1.46-0.4l-257.72-0.06c0.78-3.68-1.76-4.6-3.34-6.8-12.1-16.78-15.96-34.3-13.9-55.66 7.26-75.24 66.6-132.14 142.96-133.7a1.11 1.11 0 0 0 1.1-1.02c5.228-64.826 30.84-118.512 76.84-161.06 36.44-33.706 80.608-54.3 132.5-61.78z" fill="#E2F0FA" p-id="1269"></path><path d="M370.904 369.596c-25.266 16.948-46.792 37.754-64.58 62.42-63.22 8.6-101.08 68.34-81.42 129.42-23.8 6.654-44.632 18.488-62.5 35.5-21.066-52.84-18.54-102.786 7.58-149.84 39.62-71.36 123.74-102.72 200.92-77.5z" fill="#50B86B" p-id="1270"></path></svg>