<?xml version="1.0" standalone="no"?><!DOCTYPE svg PUBLIC "-//W3C//DTD SVG 1.1//EN" "http://www.w3.org/Graphics/SVG/1.1/DTD/svg11.dtd"><svg t="1761725349170" class="icon" viewBox="0 0 1024 1024" version="1.1" xmlns="http://www.w3.org/2000/svg" p-id="1098" xmlns:xlink="http://www.w3.org/1999/xlink" width="200" height="200"><path d="M705.075247 41.999591m8.236241 4.774383l0.553697 0.320967q8.236242 4.774382 3.461859 13.010623l-17.231908 29.726603q-4.774382 8.236242-13.010624 3.461859l-0.553697-0.320967q-8.236242-4.774382-3.461859-13.010623l17.231908-29.726603q4.774382-8.236242 13.010624-3.461859Z" fill="#FF7247" p-id="1099"></path><path d="M488.618 210.554c-215.3 146.28-206.46 461.76 11.42 599.58a306.392 306.392 0 0 0 51.02 26.58c17.12 6.96 16.8 17.28-0.58 23.78-97.94 36.54-206.5 30.88-299.34-15.38-168.24-83.8-249.26-280.34-189.64-458.52 68.12-203.54 291.34-308.66 491.2-232.46 11.76 4.48 14.9 15.52 1.86 20.82a342.45 342.45 0 0 0-65.94 35.6z" fill="#E2F0FA" p-id="1100"></path><path d="M649.408521 138.458896m8.374666 4.854624l0.311454 0.180544q8.374666 4.854624 3.520042 13.22929l-37.37258 64.471084q-4.854624 8.374666-13.22929 3.520042l-0.311454-0.180544q-8.374666-4.854624-3.520042-13.22929l37.37258-64.471084q4.854624-8.374666 13.22929-3.520042Z" fill="#FF7247" p-id="1101"></path><path d="M488.618 210.554c87.214 14.108 155.854 56.508 205.92 127.2 52.74 74.46 67.86 171.66 41.94 260.24-31.86 108.86-123.96 190.86-236.44 212.14-217.88-137.82-226.72-453.3-11.42-599.58z" fill="#FDA35D" p-id="1102"></path><path d="M858.458893 261.982079m8.236793-4.813193l29.735343-17.375932q8.236794-4.813194 13.049987 3.4236l0.322898 0.552573q4.813194 8.236794-3.4236 13.049987l-29.735343 17.375932q-8.236794 4.813194-13.049987-3.4236l-0.322898-0.552573q-4.813194-8.236794 3.4236-13.049987Z" fill="#FF7247" p-id="1103"></path><path d="M727.051409 337.72499m8.365805-4.83l64.501572-37.24q8.365805-4.83 13.195805 3.535805l0.2 0.34641q4.83 8.365805-3.535805 13.195805l-64.501572 37.24q-8.365805 4.83-13.195805-3.535805l-0.2-0.34641q-4.83-8.365805 3.535805-13.195805Z" fill="#FF7247" p-id="1104"></path><path d="M776.098 501.634m9.48 0l68.52 0q9.48 0 9.48 9.48l0 0.52q0 9.48-9.48 9.48l-68.52 0q-9.48 0-9.48-9.48l0-0.52q0-9.48 9.48-9.48Z" fill="#FF7247" p-id="1105"></path><path d="M924.661043 501.683268m9.359986-0.016336l37.719943-0.065834q9.359986-0.016336 9.376322 9.343649l0.001326 0.759999q0.016336 9.359986-9.343649 9.376322l-37.719943 0.065834q-9.359986 0.016336-9.376322-9.343649l-0.001326-0.759999q-0.016336-9.359986 9.343649-9.376322Z" fill="#FF7247" p-id="1106"></path><path d="M736.410728 668.45499m8.365806 4.83l59.062932 34.1q8.365805 4.83 3.535806 13.195805l-0.2 0.34641q-4.83 8.365805-13.195806 3.535805l-59.062932-34.1q-8.365805-4.83-3.535806-13.195805l0.2-0.34641q4.83-8.365805 13.195806-3.535805Z" fill="#FF7247" p-id="1107"></path><path d="M865.151454 742.704011m8.227896 4.78875l32.496733 18.91355q8.227896 4.78875 3.439146 13.016646l-0.321933 0.553136q-4.78875 8.227896-13.016646 3.439146l-32.496733-18.91355q-8.227896-4.78875-3.439146-13.016646l0.321933-0.553136q4.78875-8.227896 13.016646-3.439146Z" fill="#FF7247" p-id="1108"></path><path d="M601.781437 802.525264m8.357362-4.844594l0.346061-0.200604q8.357363-4.844594 13.201956 3.512769l34.243154 59.072539q4.844594 8.357363-3.512769 13.201956l-0.346061 0.200604q-8.357363 4.844594-13.201956-3.512769l-34.243154-59.072539q-4.844594-8.357363 3.512769-13.201956Z" fill="#FF7247" p-id="1109"></path><path d="M676.134853 931.255111m8.270848-4.794443l0.519091-0.300906q8.270848-4.794443 13.06529 3.476405l18.796622 32.425875q4.794443 8.270848-3.476405 13.06529l-0.519091 0.300906q-8.270848 4.794443-13.06529-3.476405l-18.796622-32.425875q-4.794443-8.270848 3.476405-13.06529Z" fill="#FF7247" p-id="1110"></path></svg>