<?xml version="1.0" standalone="no"?><!DOCTYPE svg PUBLIC "-//W3C//DTD SVG 1.1//EN" "http://www.w3.org/Graphics/SVG/1.1/DTD/svg11.dtd"><svg t="1761726577267" class="icon" viewBox="0 0 1024 1024" version="1.1" xmlns="http://www.w3.org/2000/svg" p-id="6574" xmlns:xlink="http://www.w3.org/1999/xlink" width="200" height="200"><path d="M450.63636348 225.63636348A225 225 0 0 0 225.63636348 450.63636348a20.45454521 20.45454521 0 0 1-40.90909043 0A265.90909131 265.90909131 0 0 1 450.63636348 184.72727305a20.45454521 20.45454521 0 1 1 0 40.90909043z m498.64090957 723.62045478a42.36136347 42.36136347 0 0 1-59.91136436 0l-119.84318174-119.82272695a42.36136347 42.36136347 0 0 1 59.91136436-59.91136436l119.82272695 119.82272784a42.36136347 42.36136347 0 0 1 0.02045479 59.91136347zM450.63636348 839.27272695a388.63636348 388.63636348 0 1 1 388.63636347-388.63636348 388.63636348 388.63636348 0 0 1-388.63636348 388.63636348z m0-695.45454521a306.81818174 306.81818174 0 1 0 306.81818173 306.81818173A306.81818174 306.81818174 0 0 0 450.63636348 143.81818174z" fill="#707070" p-id="6575"></path></svg>