<?xml version="1.0" standalone="no"?><!DOCTYPE svg PUBLIC "-//W3C//DTD SVG 1.1//EN" "http://www.w3.org/Graphics/SVG/1.1/DTD/svg11.dtd"><svg t="1761725458910" class="icon" viewBox="0 0 1024 1024" version="1.1" xmlns="http://www.w3.org/2000/svg" p-id="6458" xmlns:xlink="http://www.w3.org/1999/xlink" width="200" height="200"><path d="M384 789.333333H0V256h42.666667v490.666667h341.333333z" fill="#d81e06" p-id="6459"></path><path d="M277.333333 704H106.666667v-170.666667h170.666666v170.666667z m-128-42.666667h85.333334v-85.333333H149.333333v85.333333z" fill="#d81e06" p-id="6460"></path><path d="M405.333333 704h-170.666666v-170.666667h170.666666v170.666667z m-128-42.666667h85.333334v-85.333333h-85.333334v85.333333z" fill="#d81e06" p-id="6461"></path><path d="M384 704c-12.8 0-21.333333-8.533333-21.333333-21.333333v-149.333334h170.666666v106.666667c0 12.8-8.533333 21.333333-21.333333 21.333333s-21.333333-8.533333-21.333333-21.333333v-64h-85.333334v106.666667c0 12.8-8.533333 21.333333-21.333333 21.333333zM277.333333 576H106.666667v-170.666667h170.666666v170.666667z m-128-42.666667h85.333334v-85.333333H149.333333v85.333333z" fill="#d81e06" p-id="6462"></path><path d="M405.333333 576h-170.666666v-170.666667h170.666666v170.666667z m-128-42.666667h85.333334v-85.333333h-85.333334v85.333333z" fill="#d81e06" p-id="6463"></path><path d="M533.333333 576h-170.666666v-170.666667h170.666666v170.666667z m-128-42.666667h85.333334v-85.333333h-85.333334v85.333333z" fill="#d81e06" p-id="6464"></path><path d="M593.066667 576H490.666667v-170.666667h106.666666c12.8 0 21.333333 8.533333 21.333334 21.333334s-8.533333 21.333333-21.333334 21.333333h-64v85.333333h59.733334c12.8 0 21.333333 8.533333 21.333333 21.333334s-10.666667 21.333333-21.333333 21.333333zM896 533.333333c-12.8 0-21.333333-8.533333-21.333333-21.333333v-64h-64c-12.8 0-21.333333-8.533333-21.333334-21.333333s8.533333-21.333333 21.333334-21.333334h106.666666v106.666667c0 12.8-8.533333 21.333333-21.333333 21.333333z" fill="#d81e06" p-id="6465"></path><path d="M533.333333 448h-170.666666v-170.666667h170.666666v170.666667z m-128-42.666667h85.333334v-85.333333h-85.333334v85.333333z" fill="#d81e06" p-id="6466"></path><path d="M533.333333 426.666667h-42.666666v-149.333334h149.333333v42.666667h-106.666667z" fill="#d81e06" p-id="6467"></path><path d="M768 384c-12.8 0-21.333333-8.533333-21.333333-21.333333v-42.666667h-85.333334v42.666667c0 12.8-8.533333 21.333333-21.333333 21.333333s-21.333333-8.533333-21.333333-21.333333v-85.333334h170.666666v85.333334c0 12.8-8.533333 21.333333-21.333333 21.333333z" fill="#d81e06" p-id="6468"></path><path d="M896 448c-12.8 0-21.333333-8.533333-21.333333-21.333333v-106.666667h-106.666667c-12.8 0-21.333333-8.533333-21.333333-21.333333s8.533333-21.333333 21.333333-21.333334h149.333333v149.333334c0 12.8-8.533333 21.333333-21.333333 21.333333z" fill="#d81e06" p-id="6469"></path><path d="M1024 554.666667h-42.666667V85.333333H42.666667v85.333334h874.666666v42.666666H0V42.666667h1024z" fill="#d81e06" p-id="6470"></path><path d="M362.666667 0h42.666666v128h-42.666666zM490.666667 0h42.666666v128h-42.666666z" fill="#d81e06" p-id="6471"></path><path d="M618.666667 0h42.666666v128h-42.666666z" fill="#d81e06" p-id="6472"></path><path d="M746.666667 0h42.666666v128h-42.666666z" fill="#d81e06" p-id="6473"></path><path d="M106.666667 0h42.666666v128H106.666667z" fill="#d81e06" p-id="6474"></path><path d="M234.666667 0h42.666666v128h-42.666666z" fill="#d81e06" p-id="6475"></path><path d="M874.666667 0h42.666666v128h-42.666666z" fill="#d81e06" p-id="6476"></path><path d="M979.2 1024h-42.666667v-23.466667c0-4.266667 2.133333-6.4 2.133334-10.666666 27.733333-70.4 42.666667-145.066667 42.666666-221.866667v-110.933333c0-12.8-8.533333-21.333333-19.2-23.466667H960c-10.666667 0-19.2 6.4-21.333333 17.066667v34.133333h-42.666667v-27.733333V631.466667c0-10.666667-8.533333-21.333333-19.2-23.466667H874.666667c-10.666667 0-21.333333 8.533333-21.333334 21.333333v2.133334h-42.666666v-2.133334-2.133333c0-10.666667-10.666667-19.2-21.333334-19.2-6.4 0-10.666667 2.133333-14.933333 6.4-4.266667 4.266667-6.4 10.666667-6.4 14.933333V682.666667h-42.666667V450.133333c0-12.8-8.533333-21.333333-21.333333-23.466666-6.4 0-12.8 2.133333-17.066667 6.4-4.266667 4.266667-6.4 8.533333-6.4 14.933333v309.333333c0 14.933333-6.4 27.733333-14.933333 38.4l-14.933333 14.933334c-14.933333 14.933333-36.266667 14.933333-51.2 0l-78.933334-74.666667c-12.8-12.8-34.133333-12.8-49.066666 0l-8.533334 6.4 200.533334 200.533333c10.666667 10.666667 14.933333 25.6 17.066666 38.4v40.533334h-42.666666v-38.4c0-4.266667-2.133333-8.533333-4.266667-10.666667L426.666667 768c-14.933333-14.933333-14.933333-36.266667 0-51.2l14.933333-12.8c29.866667-27.733333 76.8-25.6 106.666667 2.133333l74.666666 70.4 10.666667-10.666666c2.133333-2.133333 4.266667-6.4 4.266667-10.666667V445.866667c0-17.066667 6.4-34.133333 19.2-44.8 12.8-12.8 27.733333-19.2 44.8-19.2h6.4c34.133333 4.266667 59.733333 32 59.733333 66.133333v117.333333c6.4-2.133333 14.933333-4.266667 23.466667-4.266666 17.066667 0 32 6.4 42.666666 17.066666 12.8-10.666667 29.866667-17.066667 49.066667-14.933333 21.333333 2.133333 40.533333 14.933333 49.066667 34.133333 8.533333-4.266667 17.066667-6.4 27.733333-6.4h6.4c34.133333 4.266667 57.6 32 57.6 66.133334V768c0 81.066667-14.933333 160-44.8 236.8v19.2z m0-17.066667zM629.333333 782.933333z" fill="#d81e06" p-id="6477"></path></svg>