<?xml version="1.0" standalone="no"?><!DOCTYPE svg PUBLIC "-//W3C//DTD SVG 1.1//EN" "http://www.w3.org/Graphics/SVG/1.1/DTD/svg11.dtd"><svg t="1761726395010" class="icon" viewBox="0 0 1024 1024" version="1.1" xmlns="http://www.w3.org/2000/svg" p-id="26499" xmlns:xlink="http://www.w3.org/1999/xlink" width="200" height="200"><path d="M897.6 1020H126.4c-4.8 0-8.8-2.4-12-5.6-3.2-3.2-4.8-8-4-12.8L168 592.8c0.8-8 8-13.6 16-13.6h656c8 0 14.4 5.6 16 13.6l57.6 408.8c0.8 4.8-0.8 9.6-4 12.8s-7.2 5.6-12 5.6z m-752.8-32h733.6l-52.8-376.8H197.6l-52.8 376.8z" fill="#f68a7c" p-id="26500"></path><path d="M787.2 611.2H236.8c-8.8 0-16-7.2-16-16V207.2c0-8.8 7.2-16 16-16h102.4c8.8 0 16 7.2 16 16v36.8h69.6v-36.8c0-8.8 7.2-16 16-16h141.6c8.8 0 16 7.2 16 16v36.8h69.6v-36.8c0-8.8 7.2-16 16-16h102.4c8.8 0 16 7.2 16 16v388c0.8 8.8-6.4 16-15.2 16z m-534.4-32h518.4V223.2h-70.4v36.8c0 8.8-7.2 16-16 16H583.2c-8.8 0-16-7.2-16-16v-36.8H456.8v36.8c0 8.8-7.2 16-16 16H339.2c-8.8 0-16-7.2-16-16v-36.8h-70.4v356zM627.2 1012H396.8c-4.8 0-8-3.2-8-8v-187.2c0-68 55.2-123.2 123.2-123.2s123.2 55.2 123.2 123.2v187.2c0 4.8-3.2 8-8 8z m-222.4-16h215.2v-179.2c0-59.2-48-107.2-107.2-107.2s-107.2 48-107.2 107.2v179.2z" fill="#f68a7c" p-id="26501"></path><path d="M444 521.6H336c-4.8 0-8-3.2-8-8V412.8c0-34.4 28-62.4 62.4-62.4s62.4 28 62.4 62.4v100.8c-0.8 4.8-4 8-8.8 8z m-100-16h92V412.8c0-25.6-20.8-46.4-46.4-46.4-25.6 0-46.4 20.8-46.4 46.4v92.8zM688 521.6H580c-4.8 0-8-3.2-8-8V412.8c0-34.4 28-62.4 62.4-62.4s62.4 28 62.4 62.4v100.8c-0.8 4.8-4 8-8.8 8z m-100-16H680V412.8c0-25.6-20.8-46.4-46.4-46.4-25.6 0-46.4 20.8-46.4 46.4v92.8zM512 223.2c-8.8 0-16-7.2-16-16V20c0-8.8 7.2-16 16-16s16 7.2 16 16v187.2c0 8.8-7.2 16-16 16z" fill="#f68a7c" p-id="26502"></path><path d="M701.6 129.6H512c-8.8 0-16-7.2-16-16V39.2c0-8.8 7.2-16 16-16h189.6c7.2 0 13.6 4.8 15.2 11.2 2.4 6.4-0.8 13.6-6.4 17.6l-35.2 24 35.2 24c5.6 4 8 11.2 6.4 17.6-2.4 7.2-8 12-15.2 12z m-173.6-32h121.6l-12-8c-4-3.2-7.2-8-7.2-12.8 0-5.6 2.4-10.4 7.2-12.8l12-8H528v41.6z" fill="#f68a7c" p-id="26503"></path></svg>