<?xml version="1.0" standalone="no"?><!DOCTYPE svg PUBLIC "-//W3C//DTD SVG 1.1//EN" "http://www.w3.org/Graphics/SVG/1.1/DTD/svg11.dtd"><svg t="1761745486815" class="icon" viewBox="0 0 1027 1024" version="1.1" xmlns="http://www.w3.org/2000/svg" p-id="11086" xmlns:xlink="http://www.w3.org/1999/xlink" width="200.5859375" height="200"><path d="M948.2711 80.332522a199.840729 199.840729 0 0 0-282.985208 0 200.096361 200.096361 0 0 0-282.985209 282.985209l258.444486 258.444486a33.967172 33.967172 0 0 0 48.090869 0l258.444486-258.444486a199.840729 199.840729 0 0 0 1.02253-282.985209z" fill="#FB678D" p-id="11087"></path><path d="M861.771444 47.579604c98.770018 64.483305 113.08544 205.720277-64.994571 368.973601a1010.547338 1010.547338 0 0 0-155.584347 204.697747 33.967172 33.967172 0 0 0 48.090869 0l258.444486-258.444486c78.319416-77.776197 55.823753-277.872558-85.956437-315.226862z" fill="#FB678D" p-id="11088"></path><path d="M657.584962 94.679898c-78.287462-78.287462-204.697747-100.303813-282.473944-22.016352a196.038195 196.038195 0 0 0 35.820508 294.264994c3.195407 2.04506-70.107221-156.574924 14.826687-242.563315 70.139175-71.641016 177.089434-54.258004 231.826749-29.685327z" fill="#FFFFFF" p-id="11089"></path><path d="M665.285892 651.958809a54.321912 54.321912 0 0 1-38.34488-15.977033l-258.827935-258.444486a220.483056 220.483056 0 0 1 297.172815-324.972851 220.483056 220.483056 0 0 1 297.172814 324.972851l-258.444486 258.444486a56.335018 56.335018 0 0 1-38.888099 15.977033zM524.04892 41.955689a179.485989 179.485989 0 0 0-126.921551 306.535355l258.444486 258.444486a14.219559 14.219559 0 0 0 19.460027 0l258.444486-258.444486a179.294264 179.294264 0 1 0-253.299882-253.811146 20.386694 20.386694 0 0 1-29.174062 0 179.454035 179.454035 0 0 0-126.985458-52.724209z" fill="#2C2C2C" p-id="11090"></path><path d="M811.635514 308.069151a251.734132 251.734132 0 0 0-356.703239 0A252.213443 252.213443 0 0 0 98.229036 664.77239l325.931473 325.931473a42.946265 42.946265 0 0 0 60.90445 0l325.931474-325.931473a252.181489 252.181489 0 0 0 0.511265-356.703239z" fill="#FB678D" p-id="11091"></path><path d="M702.672149 267.135992c124.365225 81.355052 142.770767 259.467016-81.866317 465.187293a1272.442863 1272.442863 0 0 0-196.517506 257.933221 42.946265 42.946265 0 0 0 60.904449 0l325.931474-325.931473c98.801972-98.322661 70.65044-350.631967-108.4521-397.189041z" fill="#FB678D" p-id="11092"></path><path d="M444.738928 319.316982C345.96891 220.546964 186.805707 199.041877 88.035689 297.811895a247.70792 247.70792 0 0 0 45.023279 371.529926c4.09012 2.556325-88.544717-197.540036 18.437496-306.02409 89.471385-90.078512 224.669038-74.708606 293.242464-44.000749z" fill="#FFFFFF" p-id="11093"></path><path d="M454.452964 1024a64.802846 64.802846 0 0 1-45.023279-18.437496l-325.931474-325.931474a273.654621 273.654621 0 0 1 0-386.356612 273.01554 273.01554 0 0 1 371.529926-13.292891 272.823816 272.823816 0 0 1 371.529926 399.170192l-325.931474 325.931474a65.505835 65.505835 0 0 1-46.045809 18.948761zM276.372954 254.322412a231.603071 231.603071 0 0 0-163.764589 395.591337l325.931474 325.931473a22.559571 22.559571 0 0 0 31.730388 0l326.506646-325.484116a231.603071 231.603071 0 1 0-327.017912-328.040442 20.19497 20.19497 0 0 1-14.315421 6.135181 19.364164 19.364164 0 0 1-14.315422-6.135181 232.785371 232.785371 0 0 0-164.755164-67.998252z m555.233851 645.472133a15.337952 15.337952 0 1 1 0-30.707857 45.854085 45.854085 0 0 0 46.045809-46.045809 15.337952 15.337952 0 1 1 30.707858 0 76.977345 76.977345 0 0 1-76.753667 76.593896z m30.707858 69.595956a15.337952 15.337952 0 0 1 0-30.707857 85.061724 85.061724 0 0 0 84.965861-84.965862 15.337952 15.337952 0 1 1 30.707858 0 115.865443 115.865443 0 0 1-115.673719 115.545903zM84.968098 151.462273a15.082319 15.082319 0 0 1-15.337951-15.337952 76.689758 76.689758 0 0 1 76.689758-76.689758 15.337952 15.337952 0 1 1 0 30.707857 45.854085 45.854085 0 0 0-46.045809 46.045809 15.082319 15.082319 0 0 1-15.305998 15.274044zM15.372143 130.979717a15.082319 15.082319 0 0 1-15.337952-15.337952A115.545903 115.545903 0 0 1 115.675956 0a15.337952 15.337952 0 1 1 0 30.707857A85.061724 85.061724 0 0 0 30.710094 115.673719a15.082319 15.082319 0 0 1-15.337951 15.337952z" fill="#2C2C2C" p-id="11094"></path></svg>