<?xml version="1.0" standalone="no"?><!DOCTYPE svg PUBLIC "-//W3C//DTD SVG 1.1//EN" "http://www.w3.org/Graphics/SVG/1.1/DTD/svg11.dtd"><svg t="1761744820214" class="icon" viewBox="0 0 1024 1024" version="1.1" xmlns="http://www.w3.org/2000/svg" p-id="5712" xmlns:xlink="http://www.w3.org/1999/xlink" width="200" height="200"><path d="M515.39 761.94A52.78 52.78 0 0 1 478 746.5L370.89 638.76c-41.43-43.11-40.3-114.35 4.78-159.45 38-38 96.64-44.26 141.06-18.47 44.56-26.43 103.41-20.69 141.2 17.19 42.84 42.84 44.53 112.93 4.59 158.44l-0.83 1c-0.27 0.32-0.59 0.65-0.87 0.92l-1.11 1.29-106.53 106.64a53.28 53.28 0 0 1-37.79 15.62z m-57-255.6A55.52 55.52 0 0 0 419 522.61c-21.4 21.42-22.06 55.06-1.49 76.67l98 98.18L615 597.9c20.54-21.51 20.41-55.9-0.32-76.58s-55.12-20.78-76.7-0.23l-21.14 20.22-21.08-20.22a54 54 0 0 0-37.35-14.75z" fill="#F9486C" p-id="5713"></path><path d="M794.4 159.26H683.8v-63.5a30.6 30.6 0 0 0-61.19-1.11v64.61H401.39v-63.5a30.59 30.59 0 1 0-61.18 0v63.53H229.59a141.19 141.19 0 0 0-141.2 141.15V818.2a141.21 141.21 0 0 0 141.18 141.2H794.4a141.21 141.21 0 0 0 141.21-141.2V300.46a141.2 141.2 0 0 0-141.21-141.2z m80 658.94a80.11 80.11 0 0 1-80 80H229.59a80.13 80.13 0 0 1-80-80V300.46a80.12 80.12 0 0 1 80-80H340.2v73a30.59 30.59 0 0 0 61.18 0v-73h221.23v72.94a30.6 30.6 0 0 0 61.19 0v-72.95h110.6a80.09 80.09 0 0 1 80 80z" p-id="5714"></path></svg>